<mxfile>
    <diagram id="YPqWnfyRoRXlLRTZDnB8" name="Login Page">
        <mxGraphModel grid="1" gridSize="10" guides="1" tooltips="1" connect="1" arrows="1" page="1" fold="1" pageScale="1" pageWidth="827" pageHeight="1169" math="0" shadow="0">
            <root>
                <mxCell id="0"/>
                <mxCell id="1" parent="0"/>
                <mxCell id="VjneLrCZCu02enSG__NV-1" value="MOCKUP PROJECT WORK" style="rounded=0;whiteSpace=wrap;html=1;" parent="1" vertex="1">
                    <mxGeometry x="380" y="20" width="120" height="60" as="geometry"/>
                </mxCell>
                <mxCell id="2" value="" style="rounded=0;whiteSpace=wrap;html=1;fillColor=#f9f7ed;strokeColor=#36393d;" vertex="1" parent="1">
                    <mxGeometry x="80" y="120" width="720" height="480" as="geometry"/>
                </mxCell>
                <mxCell id="3" value="Pagina Login" style="text;html=1;strokeColor=none;fillColor=none;align=center;verticalAlign=middle;whiteSpace=wrap;rounded=0;" vertex="1" parent="1">
                    <mxGeometry x="80" y="80" width="110" height="20" as="geometry"/>
                </mxCell>
                <mxCell id="5" value="" style="rounded=1;whiteSpace=wrap;html=1;fillColor=#eeeeee;strokeColor=#36393d;" vertex="1" parent="1">
                    <mxGeometry x="238.5" y="250" width="403" height="220" as="geometry"/>
                </mxCell>
                <mxCell id="6" value="&lt;font color=&quot;#000000&quot;&gt;User&lt;/font&gt;" style="text;html=1;strokeColor=none;fillColor=none;align=center;verticalAlign=middle;whiteSpace=wrap;rounded=0;" vertex="1" parent="1">
                    <mxGeometry x="300" y="320" width="40" height="20" as="geometry"/>
                </mxCell>
                <mxCell id="7" value="&lt;font color=&quot;#000000&quot;&gt;Password&lt;/font&gt;" style="text;html=1;strokeColor=none;fillColor=none;align=center;verticalAlign=middle;whiteSpace=wrap;rounded=0;" vertex="1" parent="1">
                    <mxGeometry x="300" y="360" width="40" height="20" as="geometry"/>
                </mxCell>
                <mxCell id="8" value="" style="rounded=1;whiteSpace=wrap;html=1;fillColor=none;strokeColor=#000000;" vertex="1" parent="1">
                    <mxGeometry x="380" y="320" width="160" height="20" as="geometry"/>
                </mxCell>
                <mxCell id="9" value="" style="rounded=1;whiteSpace=wrap;html=1;fillColor=none;strokeColor=#000000;" vertex="1" parent="1">
                    <mxGeometry x="380" y="360" width="160" height="20" as="geometry"/>
                </mxCell>
                <mxCell id="12" value="" style="rounded=1;whiteSpace=wrap;html=1;fontColor=#ffffff;strokeColor=#3700CC;fillColor=#673ab7;" vertex="1" parent="1">
                    <mxGeometry x="390" y="410" width="100" height="40" as="geometry"/>
                </mxCell>
                <mxCell id="13" value="Text" style="text;html=1;strokeColor=none;align=center;verticalAlign=middle;whiteSpace=wrap;rounded=0;" vertex="1" parent="1">
                    <mxGeometry x="420" y="420" width="40" height="20" as="geometry"/>
                </mxCell>
                <mxCell id="14" value="&lt;font color=&quot;#000000&quot;&gt;SELLER MANAGER&lt;/font&gt;" style="text;html=1;align=center;verticalAlign=middle;whiteSpace=wrap;rounded=0;fontStyle=7" vertex="1" parent="1">
                    <mxGeometry x="362" y="180" width="156" height="50" as="geometry"/>
                </mxCell>
            </root>
        </mxGraphModel>
    </diagram>
    <diagram id="xMSeiBqnO-lB_xV9flw-" name="Orders">
        <mxGraphModel grid="1" gridSize="10" guides="1" tooltips="1" connect="1" arrows="1" page="1" fold="1" pageScale="1" pageWidth="827" pageHeight="1169" math="0" shadow="0">
            <root>
                <mxCell id="YQB_zHDZ6jSN0RYZfsaA-0"/>
                <mxCell id="YQB_zHDZ6jSN0RYZfsaA-1" parent="YQB_zHDZ6jSN0RYZfsaA-0"/>
                <mxCell id="tujkHT3OPfZL1noUaYjn-0" value="MOCKUP PROJECT WORK" style="rounded=0;whiteSpace=wrap;html=1;" parent="YQB_zHDZ6jSN0RYZfsaA-1" vertex="1">
                    <mxGeometry x="380" y="20" width="120" height="60" as="geometry"/>
                </mxCell>
                <mxCell id="tujkHT3OPfZL1noUaYjn-1" value="" style="rounded=0;whiteSpace=wrap;html=1;fillColor=#f9f7ed;strokeColor=#36393d;" parent="YQB_zHDZ6jSN0RYZfsaA-1" vertex="1">
                    <mxGeometry x="80" y="120" width="720" height="480" as="geometry"/>
                </mxCell>
                <mxCell id="tujkHT3OPfZL1noUaYjn-2" value="Home" style="text;html=1;strokeColor=none;fillColor=none;align=center;verticalAlign=middle;whiteSpace=wrap;rounded=0;" parent="YQB_zHDZ6jSN0RYZfsaA-1" vertex="1">
                    <mxGeometry x="80" y="80" width="110" height="20" as="geometry"/>
                </mxCell>
                <mxCell id="tujkHT3OPfZL1noUaYjn-4" value="" style="rounded=0;whiteSpace=wrap;html=1;strokeColor=#f0f0f0;fontColor=#673AB7;fillColor=#673AB7;" parent="YQB_zHDZ6jSN0RYZfsaA-1" vertex="1">
                    <mxGeometry x="80" y="120" width="720" height="60" as="geometry"/>
                </mxCell>
                <mxCell id="tujkHT3OPfZL1noUaYjn-9" value="Prodotti" style="text;html=1;strokeColor=none;fillColor=none;align=center;verticalAlign=middle;whiteSpace=wrap;rounded=0;fontColor=#FFFFFF;" parent="YQB_zHDZ6jSN0RYZfsaA-1" vertex="1">
                    <mxGeometry x="230" y="140" width="40" height="20" as="geometry"/>
                </mxCell>
                <mxCell id="tujkHT3OPfZL1noUaYjn-10" value="Ordini" style="text;html=1;fillColor=none;align=center;verticalAlign=top;whiteSpace=wrap;rounded=0;fontColor=#FFFFFF;" parent="YQB_zHDZ6jSN0RYZfsaA-1" vertex="1">
                    <mxGeometry x="115" y="140" width="40" height="20" as="geometry"/>
                </mxCell>
                <mxCell id="tujkHT3OPfZL1noUaYjn-13" value="Analisi Vendite" style="text;html=1;strokeColor=none;fillColor=none;align=center;verticalAlign=middle;whiteSpace=wrap;rounded=0;fontColor=#FFFFFF;" parent="YQB_zHDZ6jSN0RYZfsaA-1" vertex="1">
                    <mxGeometry x="314" y="140" width="100" height="20" as="geometry"/>
                </mxCell>
                <mxCell id="tujkHT3OPfZL1noUaYjn-14" value="&lt;table border=&quot;1&quot; width=&quot;100%&quot; height=&quot;100%&quot; cellpadding=&quot;4&quot; style=&quot;width:100%;height:100%;border-collapse:collapse;&quot;&gt;&lt;tr style=&quot;background-color:#A7C942;color:#ffffff;border:1px solid #98bf21;&quot;&gt;&lt;th align=&quot;left&quot;&gt;Title 1&lt;/th&gt;&lt;th align=&quot;left&quot;&gt;Title 2&lt;/th&gt;&lt;th align=&quot;left&quot;&gt;Title 3&lt;/th&gt;&lt;/tr&gt;&lt;tr style=&quot;border:1px solid #98bf21;&quot;&gt;&lt;td&gt;Value 1&lt;/td&gt;&lt;td&gt;Value 2&lt;/td&gt;&lt;td&gt;Value 3&lt;/td&gt;&lt;/tr&gt;&lt;tr style=&quot;background-color:#EAF2D3;border:1px solid #98bf21;&quot;&gt;&lt;td&gt;Value 4&lt;/td&gt;&lt;td&gt;Value 5&lt;/td&gt;&lt;td&gt;Value 6&lt;/td&gt;&lt;/tr&gt;&lt;tr style=&quot;border:1px solid #98bf21;&quot;&gt;&lt;td&gt;Value 7&lt;/td&gt;&lt;td&gt;Value 8&lt;/td&gt;&lt;td&gt;Value 9&lt;/td&gt;&lt;/tr&gt;&lt;tr style=&quot;background-color:#EAF2D3;border:1px solid #98bf21;&quot;&gt;&lt;td&gt;Value 10&lt;/td&gt;&lt;td&gt;Value 11&lt;/td&gt;&lt;td&gt;Value 12&lt;/td&gt;&lt;/tr&gt;&lt;/table&gt;" style="text;html=1;strokeColor=#c0c0c0;fillColor=#ffffff;overflow=fill;rounded=0;fontColor=#FFFFFF;" parent="YQB_zHDZ6jSN0RYZfsaA-1" vertex="1">
                    <mxGeometry x="120" y="220" width="640" height="200" as="geometry"/>
                </mxCell>
                <mxCell id="62RIO3Nur9uOPd1IdWnP-0" value="Ordini" style="text;html=1;strokeColor=none;fillColor=none;align=center;verticalAlign=middle;whiteSpace=wrap;rounded=0;fontSize=15;fontColor=#000000;" parent="YQB_zHDZ6jSN0RYZfsaA-1" vertex="1">
                    <mxGeometry x="140" y="190" width="40" height="20" as="geometry"/>
                </mxCell>
            </root>
        </mxGraphModel>
    </diagram>
    <diagram id="C6eaeyRi4300pCdC3TYv" name="Order Details">
        <mxGraphModel grid="1" gridSize="10" guides="1" tooltips="1" connect="1" arrows="1" page="1" fold="1" pageScale="1" pageWidth="827" pageHeight="1169" math="0" shadow="0">
            <root>
                <mxCell id="rS0XbJlcpZiCSYsyca3n-0"/>
                <mxCell id="rS0XbJlcpZiCSYsyca3n-1" parent="rS0XbJlcpZiCSYsyca3n-0"/>
                <mxCell id="aeKsNQ8VIRNYzkc3TuZh-0" value="MOCKUP PROJECT WORK" style="rounded=0;whiteSpace=wrap;html=1;" parent="rS0XbJlcpZiCSYsyca3n-1" vertex="1">
                    <mxGeometry x="380" y="20" width="120" height="60" as="geometry"/>
                </mxCell>
                <mxCell id="aeKsNQ8VIRNYzkc3TuZh-1" value="" style="rounded=0;whiteSpace=wrap;html=1;fillColor=#f9f7ed;strokeColor=#36393d;" parent="rS0XbJlcpZiCSYsyca3n-1" vertex="1">
                    <mxGeometry x="80" y="120" width="720" height="480" as="geometry"/>
                </mxCell>
                <mxCell id="aeKsNQ8VIRNYzkc3TuZh-2" value="Home" style="text;html=1;strokeColor=none;fillColor=none;align=center;verticalAlign=middle;whiteSpace=wrap;rounded=0;" parent="rS0XbJlcpZiCSYsyca3n-1" vertex="1">
                    <mxGeometry x="80" y="80" width="110" height="20" as="geometry"/>
                </mxCell>
                <mxCell id="aeKsNQ8VIRNYzkc3TuZh-3" value="" style="rounded=0;whiteSpace=wrap;html=1;strokeColor=#f0f0f0;fontColor=#673AB7;fillColor=#673AB7;" parent="rS0XbJlcpZiCSYsyca3n-1" vertex="1">
                    <mxGeometry x="80" y="120" width="720" height="60" as="geometry"/>
                </mxCell>
                <mxCell id="RR3niILWXn-Z5z7KTEB3-0" value="Prodotti" style="text;html=1;strokeColor=none;fillColor=none;align=center;verticalAlign=middle;whiteSpace=wrap;rounded=0;fontColor=#FFFFFF;" parent="rS0XbJlcpZiCSYsyca3n-1" vertex="1">
                    <mxGeometry x="200" y="140" width="40" height="20" as="geometry"/>
                </mxCell>
                <mxCell id="RR3niILWXn-Z5z7KTEB3-1" value="Ordini" style="text;html=1;strokeColor=none;fillColor=none;align=center;verticalAlign=middle;whiteSpace=wrap;rounded=0;fontColor=#FFFFFF;" parent="rS0XbJlcpZiCSYsyca3n-1" vertex="1">
                    <mxGeometry x="110" y="140" width="40" height="20" as="geometry"/>
                </mxCell>
                <mxCell id="RR3niILWXn-Z5z7KTEB3-2" value="Analisi Vendite" style="text;html=1;strokeColor=none;fillColor=none;align=center;verticalAlign=middle;whiteSpace=wrap;rounded=0;fontColor=#FFFFFF;" parent="rS0XbJlcpZiCSYsyca3n-1" vertex="1">
                    <mxGeometry x="290" y="140" width="100" height="20" as="geometry"/>
                </mxCell>
                <mxCell id="RR3niILWXn-Z5z7KTEB3-3" value="" style="rounded=1;whiteSpace=wrap;html=1;strokeColor=#f0f0f0;fontColor=#FFFFFF;fillColor=#673AB7;" parent="rS0XbJlcpZiCSYsyca3n-1" vertex="1">
                    <mxGeometry x="150" y="220" width="570" height="370" as="geometry"/>
                </mxCell>
                <mxCell id="RR3niILWXn-Z5z7KTEB3-4" value="Titolo" style="text;html=1;strokeColor=none;fillColor=none;align=center;verticalAlign=middle;whiteSpace=wrap;rounded=0;fontStyle=1;fontColor=#000000;fontSize=15;" parent="rS0XbJlcpZiCSYsyca3n-1" vertex="1">
                    <mxGeometry x="200" y="270" width="40" height="20" as="geometry"/>
                </mxCell>
                <mxCell id="RR3niILWXn-Z5z7KTEB3-6" value="Text" style="text;html=1;strokeColor=none;fillColor=none;align=center;verticalAlign=middle;whiteSpace=wrap;rounded=0;fontColor=#FFFFFF;" parent="rS0XbJlcpZiCSYsyca3n-1" vertex="1">
                    <mxGeometry x="200" y="340" width="40" height="20" as="geometry"/>
                </mxCell>
                <mxCell id="RR3niILWXn-Z5z7KTEB3-7" value="Text" style="text;html=1;strokeColor=none;fillColor=none;align=center;verticalAlign=middle;whiteSpace=wrap;rounded=0;fontColor=#FFFFFF;" parent="rS0XbJlcpZiCSYsyca3n-1" vertex="1">
                    <mxGeometry x="200" y="380" width="40" height="20" as="geometry"/>
                </mxCell>
                <mxCell id="RR3niILWXn-Z5z7KTEB3-8" value="Text" style="text;html=1;strokeColor=none;fillColor=none;align=center;verticalAlign=middle;whiteSpace=wrap;rounded=0;fontColor=#FFFFFF;" parent="rS0XbJlcpZiCSYsyca3n-1" vertex="1">
                    <mxGeometry x="200" y="420" width="40" height="20" as="geometry"/>
                </mxCell>
                <mxCell id="RR3niILWXn-Z5z7KTEB3-9" value="Text" style="text;html=1;strokeColor=none;fillColor=none;align=center;verticalAlign=middle;whiteSpace=wrap;rounded=0;fontColor=#FFFFFF;" parent="rS0XbJlcpZiCSYsyca3n-1" vertex="1">
                    <mxGeometry x="200" y="460" width="40" height="20" as="geometry"/>
                </mxCell>
                <mxCell id="RR3niILWXn-Z5z7KTEB3-10" value="Text" style="text;html=1;strokeColor=none;fillColor=none;align=center;verticalAlign=middle;whiteSpace=wrap;rounded=0;fontColor=#FFFFFF;" parent="rS0XbJlcpZiCSYsyca3n-1" vertex="1">
                    <mxGeometry x="200" y="490" width="40" height="20" as="geometry"/>
                </mxCell>
                <mxCell id="RR3niILWXn-Z5z7KTEB3-11" value="Text" style="text;html=1;strokeColor=none;fillColor=none;align=center;verticalAlign=middle;whiteSpace=wrap;rounded=0;fontColor=#FFFFFF;" parent="rS0XbJlcpZiCSYsyca3n-1" vertex="1">
                    <mxGeometry x="200" y="530" width="40" height="20" as="geometry"/>
                </mxCell>
                <mxCell id="RR3niILWXn-Z5z7KTEB3-23" value="Minecraft" style="text;html=1;strokeColor=none;fillColor=none;align=center;verticalAlign=middle;whiteSpace=wrap;rounded=0;fontColor=#FFFFFF;" parent="rS0XbJlcpZiCSYsyca3n-1" vertex="1">
                    <mxGeometry x="276" y="270" width="40" height="20" as="geometry"/>
                </mxCell>
                <mxCell id="RR3niILWXn-Z5z7KTEB3-26" value="Titolo" style="text;html=1;strokeColor=none;fillColor=none;align=center;verticalAlign=middle;whiteSpace=wrap;rounded=0;fontStyle=1;fontColor=#000000;fontSize=15;" parent="rS0XbJlcpZiCSYsyca3n-1" vertex="1">
                    <mxGeometry x="200" y="300" width="40" height="20" as="geometry"/>
                </mxCell>
                <mxCell id="RR3niILWXn-Z5z7KTEB3-27" value="Minecraft" style="text;html=1;strokeColor=none;fillColor=none;align=center;verticalAlign=middle;whiteSpace=wrap;rounded=0;fontColor=#FFFFFF;" parent="rS0XbJlcpZiCSYsyca3n-1" vertex="1">
                    <mxGeometry x="276" y="300" width="40" height="20" as="geometry"/>
                </mxCell>
            </root>
        </mxGraphModel>
    </diagram>
    <diagram id="CG6ndKe33yqp9AQ8dNk6" name="Prodotti">
        <mxGraphModel grid="1" gridSize="10" guides="1" tooltips="1" connect="1" arrows="1" page="1" fold="1" pageScale="1" pageWidth="827" pageHeight="1169" math="0" shadow="0">
            <root>
                <mxCell id="g6Q3F1gcuBbFoPmyik7O-0"/>
                <mxCell id="g6Q3F1gcuBbFoPmyik7O-1" parent="g6Q3F1gcuBbFoPmyik7O-0"/>
                <mxCell id="d_W5E2UUWsm4wyzyjXwF-0" value="MOCKUP PROJECT WORK" style="rounded=0;whiteSpace=wrap;html=1;" parent="g6Q3F1gcuBbFoPmyik7O-1" vertex="1">
                    <mxGeometry x="380" y="20" width="120" height="60" as="geometry"/>
                </mxCell>
                <mxCell id="d_W5E2UUWsm4wyzyjXwF-1" value="" style="rounded=0;whiteSpace=wrap;html=1;fillColor=#f9f7ed;strokeColor=#36393d;" parent="g6Q3F1gcuBbFoPmyik7O-1" vertex="1">
                    <mxGeometry x="80" y="120" width="720" height="480" as="geometry"/>
                </mxCell>
                <mxCell id="d_W5E2UUWsm4wyzyjXwF-2" value="Home" style="text;html=1;strokeColor=none;fillColor=none;align=center;verticalAlign=middle;whiteSpace=wrap;rounded=0;" parent="g6Q3F1gcuBbFoPmyik7O-1" vertex="1">
                    <mxGeometry x="80" y="80" width="110" height="20" as="geometry"/>
                </mxCell>
                <mxCell id="d_W5E2UUWsm4wyzyjXwF-3" value="" style="rounded=0;whiteSpace=wrap;html=1;strokeColor=#f0f0f0;fontColor=#673AB7;fillColor=#673AB7;" parent="g6Q3F1gcuBbFoPmyik7O-1" vertex="1">
                    <mxGeometry x="80" y="120" width="720" height="60" as="geometry"/>
                </mxCell>
                <mxCell id="d_W5E2UUWsm4wyzyjXwF-4" value="Prodotti" style="text;html=1;strokeColor=none;fillColor=none;align=center;verticalAlign=middle;whiteSpace=wrap;rounded=0;fontColor=#FFFFFF;" parent="g6Q3F1gcuBbFoPmyik7O-1" vertex="1">
                    <mxGeometry x="230" y="140" width="40" height="20" as="geometry"/>
                </mxCell>
                <mxCell id="d_W5E2UUWsm4wyzyjXwF-5" value="Ordini" style="text;html=1;fillColor=none;align=center;verticalAlign=top;whiteSpace=wrap;rounded=0;fontColor=#FFFFFF;" parent="g6Q3F1gcuBbFoPmyik7O-1" vertex="1">
                    <mxGeometry x="115" y="140" width="40" height="20" as="geometry"/>
                </mxCell>
                <mxCell id="d_W5E2UUWsm4wyzyjXwF-6" value="Analisi Vendite" style="text;html=1;strokeColor=none;fillColor=none;align=center;verticalAlign=middle;whiteSpace=wrap;rounded=0;fontColor=#FFFFFF;" parent="g6Q3F1gcuBbFoPmyik7O-1" vertex="1">
                    <mxGeometry x="314" y="140" width="100" height="20" as="geometry"/>
                </mxCell>
                <mxCell id="d_W5E2UUWsm4wyzyjXwF-7" value="&lt;table border=&quot;1&quot; width=&quot;100%&quot; height=&quot;100%&quot; cellpadding=&quot;4&quot; style=&quot;width:100%;height:100%;border-collapse:collapse;&quot;&gt;&lt;tr style=&quot;background-color:#A7C942;color:#ffffff;border:1px solid #98bf21;&quot;&gt;&lt;th align=&quot;left&quot;&gt;Title 1&lt;/th&gt;&lt;th align=&quot;left&quot;&gt;Title 2&lt;/th&gt;&lt;th align=&quot;left&quot;&gt;Title 3&lt;/th&gt;&lt;/tr&gt;&lt;tr style=&quot;border:1px solid #98bf21;&quot;&gt;&lt;td&gt;Value 1&lt;/td&gt;&lt;td&gt;Value 2&lt;/td&gt;&lt;td&gt;Value 3&lt;/td&gt;&lt;/tr&gt;&lt;tr style=&quot;background-color:#EAF2D3;border:1px solid #98bf21;&quot;&gt;&lt;td&gt;Value 4&lt;/td&gt;&lt;td&gt;Value 5&lt;/td&gt;&lt;td&gt;Value 6&lt;/td&gt;&lt;/tr&gt;&lt;tr style=&quot;border:1px solid #98bf21;&quot;&gt;&lt;td&gt;Value 7&lt;/td&gt;&lt;td&gt;Value 8&lt;/td&gt;&lt;td&gt;Value 9&lt;/td&gt;&lt;/tr&gt;&lt;tr style=&quot;background-color:#EAF2D3;border:1px solid #98bf21;&quot;&gt;&lt;td&gt;Value 10&lt;/td&gt;&lt;td&gt;Value 11&lt;/td&gt;&lt;td&gt;Value 12&lt;/td&gt;&lt;/tr&gt;&lt;/table&gt;" style="text;html=1;strokeColor=#c0c0c0;fillColor=#ffffff;overflow=fill;rounded=0;fontColor=#FFFFFF;" parent="g6Q3F1gcuBbFoPmyik7O-1" vertex="1">
                    <mxGeometry x="120" y="220" width="640" height="200" as="geometry"/>
                </mxCell>
                <mxCell id="d_W5E2UUWsm4wyzyjXwF-8" value="Prodotti" style="text;html=1;strokeColor=none;fillColor=none;align=center;verticalAlign=middle;whiteSpace=wrap;rounded=0;fontSize=15;fontColor=#000000;" parent="g6Q3F1gcuBbFoPmyik7O-1" vertex="1">
                    <mxGeometry x="130" y="190" width="40" height="20" as="geometry"/>
                </mxCell>
            </root>
        </mxGraphModel>
    </diagram>
    <diagram id="GoXSu1a6x64AI_dTiuim" name="dettaglio prodotto">
        <mxGraphModel dx="808" dy="575" grid="1" gridSize="10" guides="1" tooltips="1" connect="1" arrows="1" fold="1" page="1" pageScale="1" pageWidth="827" pageHeight="1169" math="0" shadow="0">
            <root>
                <mxCell id="QG8y9z_dPU96cX-PUGEP-0"/>
                <mxCell id="QG8y9z_dPU96cX-PUGEP-1" parent="QG8y9z_dPU96cX-PUGEP-0"/>
                <mxCell id="OYnXL2ZsEPwnyOpzPUu5-0" value="MOCKUP PROJECT WORK" style="rounded=0;whiteSpace=wrap;html=1;" parent="QG8y9z_dPU96cX-PUGEP-1" vertex="1">
                    <mxGeometry x="380" y="20" width="120" height="60" as="geometry"/>
                </mxCell>
                <mxCell id="OYnXL2ZsEPwnyOpzPUu5-1" value="" style="rounded=0;whiteSpace=wrap;html=1;fillColor=#f9f7ed;strokeColor=#36393d;" parent="QG8y9z_dPU96cX-PUGEP-1" vertex="1">
                    <mxGeometry x="80" y="120" width="720" height="480" as="geometry"/>
                </mxCell>
                <mxCell id="OYnXL2ZsEPwnyOpzPUu5-2" value="Home" style="text;html=1;strokeColor=none;fillColor=none;align=center;verticalAlign=middle;whiteSpace=wrap;rounded=0;" parent="QG8y9z_dPU96cX-PUGEP-1" vertex="1">
                    <mxGeometry x="80" y="80" width="110" height="20" as="geometry"/>
                </mxCell>
                <mxCell id="OYnXL2ZsEPwnyOpzPUu5-3" value="" style="rounded=0;whiteSpace=wrap;html=1;strokeColor=#f0f0f0;fontColor=#673AB7;fillColor=#673AB7;" parent="QG8y9z_dPU96cX-PUGEP-1" vertex="1">
                    <mxGeometry x="80" y="120" width="720" height="60" as="geometry"/>
                </mxCell>
                <mxCell id="OYnXL2ZsEPwnyOpzPUu5-4" value="Prodotti" style="text;html=1;strokeColor=none;fillColor=none;align=center;verticalAlign=middle;whiteSpace=wrap;rounded=0;fontColor=#FFFFFF;" parent="QG8y9z_dPU96cX-PUGEP-1" vertex="1">
                    <mxGeometry x="200" y="140" width="40" height="20" as="geometry"/>
                </mxCell>
                <mxCell id="OYnXL2ZsEPwnyOpzPUu5-5" value="Ordini" style="text;html=1;strokeColor=none;fillColor=none;align=center;verticalAlign=middle;whiteSpace=wrap;rounded=0;fontColor=#FFFFFF;" parent="QG8y9z_dPU96cX-PUGEP-1" vertex="1">
                    <mxGeometry x="110" y="140" width="40" height="20" as="geometry"/>
                </mxCell>
                <mxCell id="OYnXL2ZsEPwnyOpzPUu5-6" value="Analisi Vendite" style="text;html=1;strokeColor=none;fillColor=none;align=center;verticalAlign=middle;whiteSpace=wrap;rounded=0;fontColor=#FFFFFF;" parent="QG8y9z_dPU96cX-PUGEP-1" vertex="1">
                    <mxGeometry x="290" y="140" width="100" height="20" as="geometry"/>
                </mxCell>
                <mxCell id="OYnXL2ZsEPwnyOpzPUu5-7" value="" style="rounded=1;whiteSpace=wrap;html=1;strokeColor=#f0f0f0;fontColor=#FFFFFF;fillColor=#673AB7;" parent="QG8y9z_dPU96cX-PUGEP-1" vertex="1">
                    <mxGeometry x="150" y="220" width="570" height="370" as="geometry"/>
                </mxCell>
                <mxCell id="OYnXL2ZsEPwnyOpzPUu5-8" value="Titolo" style="text;html=1;strokeColor=none;fillColor=none;align=center;verticalAlign=middle;whiteSpace=wrap;rounded=0;fontStyle=1;fontColor=#000000;fontSize=15;" parent="QG8y9z_dPU96cX-PUGEP-1" vertex="1">
                    <mxGeometry x="200" y="270" width="40" height="20" as="geometry"/>
                </mxCell>
                <mxCell id="OYnXL2ZsEPwnyOpzPUu5-9" value="Text" style="text;html=1;strokeColor=none;fillColor=none;align=center;verticalAlign=middle;whiteSpace=wrap;rounded=0;fontColor=#FFFFFF;" parent="QG8y9z_dPU96cX-PUGEP-1" vertex="1">
                    <mxGeometry x="200" y="340" width="40" height="20" as="geometry"/>
                </mxCell>
                <mxCell id="OYnXL2ZsEPwnyOpzPUu5-10" value="Text" style="text;html=1;strokeColor=none;fillColor=none;align=center;verticalAlign=middle;whiteSpace=wrap;rounded=0;fontColor=#FFFFFF;" parent="QG8y9z_dPU96cX-PUGEP-1" vertex="1">
                    <mxGeometry x="200" y="380" width="40" height="20" as="geometry"/>
                </mxCell>
                <mxCell id="OYnXL2ZsEPwnyOpzPUu5-11" value="Text" style="text;html=1;strokeColor=none;fillColor=none;align=center;verticalAlign=middle;whiteSpace=wrap;rounded=0;fontColor=#FFFFFF;" parent="QG8y9z_dPU96cX-PUGEP-1" vertex="1">
                    <mxGeometry x="200" y="420" width="40" height="20" as="geometry"/>
                </mxCell>
                <mxCell id="OYnXL2ZsEPwnyOpzPUu5-12" value="Text" style="text;html=1;strokeColor=none;fillColor=none;align=center;verticalAlign=middle;whiteSpace=wrap;rounded=0;fontColor=#FFFFFF;" parent="QG8y9z_dPU96cX-PUGEP-1" vertex="1">
                    <mxGeometry x="200" y="460" width="40" height="20" as="geometry"/>
                </mxCell>
                <mxCell id="OYnXL2ZsEPwnyOpzPUu5-13" value="Text" style="text;html=1;strokeColor=none;fillColor=none;align=center;verticalAlign=middle;whiteSpace=wrap;rounded=0;fontColor=#FFFFFF;" parent="QG8y9z_dPU96cX-PUGEP-1" vertex="1">
                    <mxGeometry x="200" y="490" width="40" height="20" as="geometry"/>
                </mxCell>
                <mxCell id="OYnXL2ZsEPwnyOpzPUu5-14" value="Text" style="text;html=1;strokeColor=none;fillColor=none;align=center;verticalAlign=middle;whiteSpace=wrap;rounded=0;fontColor=#FFFFFF;" parent="QG8y9z_dPU96cX-PUGEP-1" vertex="1">
                    <mxGeometry x="200" y="530" width="40" height="20" as="geometry"/>
                </mxCell>
                <mxCell id="OYnXL2ZsEPwnyOpzPUu5-15" value="Minecraft" style="text;html=1;strokeColor=none;fillColor=none;align=center;verticalAlign=middle;whiteSpace=wrap;rounded=0;fontColor=#FFFFFF;" parent="QG8y9z_dPU96cX-PUGEP-1" vertex="1">
                    <mxGeometry x="276" y="270" width="40" height="20" as="geometry"/>
                </mxCell>
                <mxCell id="OYnXL2ZsEPwnyOpzPUu5-16" value="Titolo" style="text;html=1;strokeColor=none;fillColor=none;align=center;verticalAlign=middle;whiteSpace=wrap;rounded=0;fontStyle=1;fontColor=#000000;fontSize=15;" parent="QG8y9z_dPU96cX-PUGEP-1" vertex="1">
                    <mxGeometry x="200" y="300" width="40" height="20" as="geometry"/>
                </mxCell>
                <mxCell id="OYnXL2ZsEPwnyOpzPUu5-17" value="Minecraft" style="text;html=1;strokeColor=none;fillColor=none;align=center;verticalAlign=middle;whiteSpace=wrap;rounded=0;fontColor=#FFFFFF;" parent="QG8y9z_dPU96cX-PUGEP-1" vertex="1">
                    <mxGeometry x="276" y="300" width="40" height="20" as="geometry"/>
                </mxCell>
            </root>
        </mxGraphModel>
    </diagram>
    <diagram id="ThO0DIMFshEx7-4xoXj9" name="Analisi vendite">
        <mxGraphModel grid="1" gridSize="10" guides="1" tooltips="1" connect="1" arrows="1" page="1" fold="1" pageScale="1" pageWidth="827" pageHeight="1169" math="0" shadow="0">
            <root>
                <mxCell id="O29oGcqYQHnfjBe5CFRu-0"/>
                <mxCell id="O29oGcqYQHnfjBe5CFRu-1" parent="O29oGcqYQHnfjBe5CFRu-0"/>
                <mxCell id="3KuM1ddZgPAsFoevllNm-0" value="MOCKUP PROJECT WORK" style="rounded=0;whiteSpace=wrap;html=1;" parent="O29oGcqYQHnfjBe5CFRu-1" vertex="1">
                    <mxGeometry x="380" y="20" width="120" height="60" as="geometry"/>
                </mxCell>
                <mxCell id="3KuM1ddZgPAsFoevllNm-1" value="" style="rounded=0;whiteSpace=wrap;html=1;fillColor=#f9f7ed;strokeColor=#36393d;" parent="O29oGcqYQHnfjBe5CFRu-1" vertex="1">
                    <mxGeometry x="80" y="120" width="720" height="480" as="geometry"/>
                </mxCell>
                <mxCell id="3KuM1ddZgPAsFoevllNm-2" value="Analisi vendite&lt;br&gt;" style="text;html=1;strokeColor=none;fillColor=none;align=center;verticalAlign=middle;whiteSpace=wrap;rounded=0;" parent="O29oGcqYQHnfjBe5CFRu-1" vertex="1">
                    <mxGeometry x="70" y="80" width="110" height="20" as="geometry"/>
                </mxCell>
                <mxCell id="3KuM1ddZgPAsFoevllNm-3" value="" style="rounded=0;whiteSpace=wrap;html=1;strokeColor=#f0f0f0;fontColor=#673AB7;fillColor=#673AB7;" parent="O29oGcqYQHnfjBe5CFRu-1" vertex="1">
                    <mxGeometry x="80" y="120" width="720" height="60" as="geometry"/>
                </mxCell>
                <mxCell id="3KuM1ddZgPAsFoevllNm-4" value="Prodotti" style="text;html=1;strokeColor=none;fillColor=none;align=center;verticalAlign=middle;whiteSpace=wrap;rounded=0;fontColor=#FFFFFF;" parent="O29oGcqYQHnfjBe5CFRu-1" vertex="1">
                    <mxGeometry x="200" y="140" width="40" height="20" as="geometry"/>
                </mxCell>
                <mxCell id="3KuM1ddZgPAsFoevllNm-5" value="Ordini" style="text;html=1;strokeColor=none;fillColor=none;align=center;verticalAlign=middle;whiteSpace=wrap;rounded=0;fontColor=#FFFFFF;" parent="O29oGcqYQHnfjBe5CFRu-1" vertex="1">
                    <mxGeometry x="110" y="140" width="40" height="20" as="geometry"/>
                </mxCell>
                <mxCell id="3KuM1ddZgPAsFoevllNm-6" value="Analisi Vendite" style="text;html=1;strokeColor=none;fillColor=none;align=center;verticalAlign=middle;whiteSpace=wrap;rounded=0;fontColor=#FFFFFF;" parent="O29oGcqYQHnfjBe5CFRu-1" vertex="1">
                    <mxGeometry x="290" y="140" width="100" height="20" as="geometry"/>
                </mxCell>
                <mxCell id="3KuM1ddZgPAsFoevllNm-21" value="Titolo grafico" style="text;html=1;strokeColor=none;fillColor=none;align=center;verticalAlign=middle;whiteSpace=wrap;rounded=0;fontSize=15;fontColor=#000000;" parent="O29oGcqYQHnfjBe5CFRu-1" vertex="1">
                    <mxGeometry x="130" y="220" width="90" height="20" as="geometry"/>
                </mxCell>
                <mxCell id="3KuM1ddZgPAsFoevllNm-22" value="" style="rounded=0;whiteSpace=wrap;html=1;strokeWidth=1;fontSize=15;fontColor=#000000;fillColor=#FFFFFF;strokeColor=#000000;" parent="O29oGcqYQHnfjBe5CFRu-1" vertex="1">
                    <mxGeometry x="140" y="260" width="600" height="230" as="geometry"/>
                </mxCell>
                <mxCell id="3KuM1ddZgPAsFoevllNm-23" value="grafico a linee" style="text;html=1;strokeColor=none;fillColor=none;align=center;verticalAlign=middle;whiteSpace=wrap;rounded=0;fontSize=15;fontColor=#000000;" parent="O29oGcqYQHnfjBe5CFRu-1" vertex="1">
                    <mxGeometry x="390" y="370" width="40" height="20" as="geometry"/>
                </mxCell>
                <mxCell id="3KuM1ddZgPAsFoevllNm-25" value="V" style="text;html=1;strokeColor=none;fillColor=none;align=center;verticalAlign=middle;whiteSpace=wrap;rounded=0;fontSize=15;fontColor=#000000;" parent="O29oGcqYQHnfjBe5CFRu-1" vertex="1">
                    <mxGeometry x="700" y="220" width="40" height="20" as="geometry"/>
                </mxCell>
            </root>
        </mxGraphModel>
    </diagram>
</mxfile>